::General::
Complete name: Prometheus 2012 480P BRRip x264 [Dual Audio] Eng-Hin NimitMak SilverRG
Director: Ridley Scott
Format: MPEG-4
File size: 504 MiB
Duration: 2h 3mn
Overall Bitrate: 569 Kbps
Language: Dual-Audio [English-Hindi]
Sub Title: Englis,Persian (.srt) Softcoded ,Can Be Turned Off.
Encoded date: 2012-09-26
Writing application: MeGui
Writing library: x264 core 100 r1659 57b2e56
Encoder: NimitMak
Source: 720p.BluRay.X264.YIFY (Thanks)



::IMDB INFO::
IMDB Link: http://www.imdb.com/title/tt1446714/ 
IMDB Rating:7.4/10
Release Date: 8 June 2012 (India)
Genre: Adventure | Sci-Fi | Thriller 
YouTube



::Video::
ID: 1
Format: AVC
Format/Info: Advanced Video Codec
Format profile: High@L3.0
Format settings, CABAC: Yes
Format settings, ReFrames: 4 frames
Codec ID: V_MPEG4/ISO/AVC
Nominal Bitrate: 502 Kbps/10.6 Mbps(Max)
Width: 852 pixels
Height: 352 pixels
Display aspect ratio: 2.40:1
Frame rate: 23.976 fps
Color space: YUV
Chroma subsampling: 4:2:0
Bit depth: 8 bits
Scan type: Progressive
Writing library: x264 core 100 r1659 57b2e56



::Audio::
ID: 2
Format : AAC
Format/Info: Advanced Audio Codec
Format profile : HE-AAC / LC
Codec ID : 40
Duration: 2h 3mn
Bit rate mode: Variable
Bit rate: 32.0 Kbps
Maximum bit rate: 42.2 Kbps
Channel(s): 2 channels
Channel positions: Front: L R
Sampling rate: 22.05 KHz / 11.025 KHz
Compression mode: Lossy
Stream size: 28.3 MiB (6%)
Title: English - NimitMak SilverRG
Language: English



::Audio::
ID: 3
Format: AAC
Format/Info: Advanced Audio Codec
Format profile: HE-AAC / LC
Codec ID: 40
Duration: 2h 3mn
Bit rate mode: Variable
Bit rate: 32.0 Kbps
Maximum bit rate: 47.1 Kbps
Channel(s): 2 channels
Channel positions: Front: L R
Sampling rate : 22.05 KHz / 11.025 KHz
Compression mode: Lossy
Stream size: 28.3 MiB (6%)
Title: Mafiaking - Thanks
Language: Hindi


::Cast::
Noomi Rapace, Logan Marshall-Green and Michael Fassbender



::Plot::
A team of explorers discover a clue to the origins of mankind on Earth, leading them on a journey to the darkest corners of the 

universe. There, they must fight a terrifying battle to save the future of the human race.
